<svg xmlns="http://www.w3.org/2000/svg">
  <symbol id="instagram">
    <path
        d="M30.6408 7.57959C27.6008 7.67279 27.6016 12.0464 30.6408 12.1388C33.6808 12.0456 33.68 7.67199 30.6408 7.57959ZM20.5 10.2188C15.112 10.2188 10.7444 14.598 10.7444 20C11.2584 32.9748 29.7432 32.9712 30.2552 20C30.2556 14.598 25.8876 10.2188 20.5 10.2188ZM20.5 26.3492C17.0028 26.3492 14.1676 23.5064 14.1676 20C14.5012 11.578 26.5004 11.58 26.8328 20C26.8324 23.5068 23.9972 26.3492 20.5 26.3492Z"
        fill="currentColor"/>
    <path
        d="M39.3832 12.1672C39.2424 5.50039 35.0008 1.25639 28.3324 1.11679C26.7312 0.962391 14.2696 0.959591 12.6672 1.11679C6.00036 1.25759 1.75636 5.49919 1.61676 12.1676C1.46236 13.7664 1.45916 26.232 1.61676 27.8328C1.74116 34.478 6.02116 38.7592 12.6672 38.8832C14.2684 39.0392 26.73 39.0392 28.3324 38.8832C30.3544 38.7908 31.7356 38.4696 32.944 38C37.1788 36.3084 39.248 32.5456 39.3832 27.8324C39.5376 26.2312 39.5404 13.7696 39.3832 12.1672ZM28.1764 35.4636C26.6008 35.614 14.4 35.6164 12.8232 35.4636C10.9712 35.3792 9.96516 35.0696 9.29556 34.8096C3.51596 32.1288 5.30796 26.7076 5.03556 19.2664C5.04156 17.538 5.03196 14.052 5.03596 12.3236C5.26676 7.17079 7.69356 4.78519 12.8232 4.53639C14.4008 4.38599 26.5984 4.38359 28.1764 4.53639C33.3308 4.76719 35.714 7.19399 35.9636 12.3232C36.0656 13.5548 36.1396 20.278 35.9636 23.6804C36.1536 30.0708 35.8624 35.0888 28.1764 35.4636Z"
        fill="currentColor"/>
  </symbol>
  <symbol id="facebook">
    <g clip-path="url(#clip0_1107_139)">
      <path
          d="M40.5 20C40.5 8.9543 31.5457 0 20.5 0C9.45431 0 0.5 8.9543 0.5 20C0.5 29.9826 7.81371 38.2566 17.375 39.7569V25.7812H12.2969V20H17.375V15.5938C17.375 10.5812 20.3609 7.8125 24.9293 7.8125C27.1175 7.8125 29.4062 8.20312 29.4062 8.20312V13.125H26.8843C24.3998 13.125 23.625 14.6667 23.625 16.2483V20H29.1719L28.2852 25.7812H23.625V39.7569C33.1863 38.2566 40.5 29.9826 40.5 20Z"
          fill="currentColor"/>
      <path
          d="M28.2852 25.7812L29.1719 20H23.625V16.2483C23.625 14.6667 24.3998 13.125 26.8843 13.125H29.4062V8.20312C29.4062 8.20312 27.1175 7.8125 24.9293 7.8125C20.3609 7.8125 17.375 10.5812 17.375 15.5938V20H12.2969V25.7812H17.375V39.7569C19.4457 40.081 21.5543 40.081 23.625 39.7569V25.7812H28.2852Z"
          fill="white"/>
    </g>
    <defs>
      <clipPath id="clip0_1107_139">
        <rect width="40" height="40" fill="white" transform="translate(0.5)"/>
      </clipPath>
    </defs>
  </symbol>
  <symbol id="youtube">
    <path fill="currentColor"
          d="M38.833 16.183A14.167 14.167 0 0 0 37.316 9.3a4.866 4.866 0 0 0-2.866-1.667c-4.638-.42-9.294-.593-13.95-.516a130.75 130.75 0 0 0-13.9.5A4.783 4.783 0 0 0 4.167 8.85c-1.5 1.383-1.667 3.75-1.834 5.75a80.481 80.481 0 0 0 0 10.8c.048 1.126.216 2.243.5 3.333.201.842.608 1.62 1.184 2.267A4.767 4.767 0 0 0 6.5 32.3a75.31 75.31 0 0 0 10.833.55c5.834.083 10.95 0 17-.467a4.8 4.8 0 0 0 2.55-1.3 4.15 4.15 0 0 0 1.017-1.666c.596-1.83.889-3.744.867-5.667.066-.933.066-6.567.066-7.567Zm-22.1 8.567V14.433l9.867 5.184c-2.767 1.533-6.417 3.266-9.867 5.133Z"/>
  </symbol>
  <symbol id="tiktok">
    <path
        d="M32.5 18.0667V13.3333C30.2833 13.3333 28.5917 12.7417 27.5 11.5917C26.3796 10.2792 25.7519 8.61711 25.725 6.89165V6.54998L21.25 6.44165V25.6666C21.0965 26.5054 20.6893 27.277 20.0835 27.877C19.4776 28.4771 18.7022 28.8768 17.862 29.0222C17.0217 29.1676 16.1571 29.0517 15.3848 28.6902C14.6125 28.3286 13.9697 27.7388 13.5433 27.0004C13.1168 26.262 12.9272 25.4105 12.9999 24.5609C13.0727 23.7113 13.4045 22.9044 13.9503 22.2493C14.4962 21.5942 15.2299 21.1223 16.0525 20.8974C16.875 20.6725 17.7467 20.7054 18.55 20.9917V16.4083C18.0817 16.3316 17.6079 16.2926 17.1333 16.2916C15.4258 16.2916 13.7567 16.798 12.3369 17.7466C10.9172 18.6953 9.81061 20.0436 9.15718 21.6212C8.50374 23.1987 8.33277 24.9346 8.66589 26.6093C8.99901 28.284 9.82126 29.8223 11.0286 31.0297C12.236 32.2371 13.7744 33.0593 15.4491 33.3924C17.1238 33.7255 18.8596 33.5546 20.4372 32.9011C22.0147 32.2477 23.363 31.1411 24.3117 29.7214C25.2603 28.3017 25.7667 26.6325 25.7667 24.925C25.7657 24.5712 25.7435 24.2178 25.7 23.8666V16.2417C27.7349 17.5124 30.1023 18.1478 32.5 18.0667Z"
        fill="currentColor"/>
  </symbol>
  <symbol id="tweeter">
    <path
        d="M39.0683 8.44882C37.7015 9.05602 36.2331 9.46442 34.6919 9.64882C36.2659 8.70602 37.4727 7.21362 38.0411 5.43402C36.5699 6.30682 34.9391 6.94082 33.2019 7.28362C31.8123 5.80242 29.8327 4.87682 27.6415 4.87682C22.7983 4.81202 19.0747 9.54362 20.2207 14.2308C13.8891 13.9136 8.27588 10.88 4.51668 6.26922C2.46508 9.61482 3.62988 14.3992 6.87508 16.4416C5.62668 16.4016 4.45108 16.0588 3.42428 15.4888C3.37668 19.2108 6.01709 22.3532 9.53588 23.0544C8.45468 23.356 7.20908 23.4032 6.09508 23.1856C7.06508 26.212 9.87868 28.416 13.2123 28.4772C10.1983 30.8856 5.97868 32.1412 1.93188 31.6324C18.2047 41.6472 36.1939 28.5264 35.2651 12.392C36.7543 11.3168 38.0471 9.97562 39.0683 8.44882Z"
        fill="currentColor"/>
  </symbol>
  <symbol id="arrow">
    <path d="M19.9201 8.95001L13.4001 15.47C12.6301 16.24 11.3701 16.24 10.6001 15.47L4.08008 8.95001"
          stroke="currentColor" stroke-width="1.5" stroke-miterlimit="10" stroke-linecap="round"
          stroke-linejoin="round"/>
  </symbol>
</svg>