<svg xmlns="http://www.w3.org/2000/svg" width="41" height="40" fill="none">
  <path fill="#000"
        d="M38.833 16.183A14.167 14.167 0 0 0 37.316 9.3a4.866 4.866 0 0 0-2.866-1.667c-4.638-.42-9.294-.593-13.95-.516a130.75 130.75 0 0 0-13.9.5A4.783 4.783 0 0 0 4.167 8.85c-1.5 1.383-1.667 3.75-1.834 5.75a80.481 80.481 0 0 0 0 10.8c.048 1.126.216 2.243.5 3.333.201.842.608 1.62 1.184 2.267A4.767 4.767 0 0 0 6.5 32.3a75.31 75.31 0 0 0 10.833.55c5.834.083 10.95 0 17-.467a4.8 4.8 0 0 0 2.55-1.3 4.15 4.15 0 0 0 1.017-1.666c.596-1.83.889-3.744.867-5.667.066-.933.066-6.567.066-7.567Zm-22.1 8.567V14.433l9.867 5.184c-2.767 1.533-6.417 3.266-9.867 5.133Z"/>
</svg>